<svg xmlns="http://www.w3.org/2000/svg" viewBox="0 0 1200 840.9250000000001" width="1200" height="840.9250000000001" font-family="'PingFang SC','Microsoft YaHei','Noto Sans SC','Helvetica Neue',Arial,sans-serif">
<rect x="0" y="0" width="1200" height="840.9250000000001" fill="#ffffff"/>
<rect x="0" y="0" width="1200" height="66" fill="#0a3a63"/>
<text x="36" y="32" font-size="22" font-weight="bold" fill="#ffffff">图 19 CAN FD 帧结构思维导图</text>
<text x="36" y="53" font-size="13" fill="#c7d6ea">SOF → 仲裁 → 控制 → 数据 → CRC → ACK → EOF</text>
<defs>
<marker id="arr" markerWidth="10" markerHeight="10" refX="8" refY="3" orient="auto" markerUnits="strokeWidth">
  <path d="M0,0 L8,3 L0,6 Z" fill="#0f4c81"/></marker>
<marker id="arrA" markerWidth="10" markerHeight="10" refX="8" refY="3" orient="auto" markerUnits="strokeWidth">
  <path d="M0,0 L8,3 L0,6 Z" fill="#d97706"/></marker>
<marker id="arrG" markerWidth="10" markerHeight="10" refX="8" refY="3" orient="auto" markerUnits="strokeWidth">
  <path d="M0,0 L8,3 L0,6 Z" fill="#16a34a"/></marker>
</defs>
<path d="M 290.0 456.5 C 315.0 456.5 315.0 166.2 340.0 166.2" fill="none" stroke="#64748b" stroke-width="1.6"/>
<path d="M 560.0 166.2 C 585.0 166.2 585.0 138.1 610.0 138.1" fill="none" stroke="#64748b" stroke-width="1.6"/>
<path d="M 560.0 166.2 C 585.0 166.2 585.0 194.3 610.0 194.3" fill="none" stroke="#64748b" stroke-width="1.6"/>
<path d="M 290.0 456.5 C 315.0 456.5 315.0 344.0 340.0 344.0" fill="none" stroke="#64748b" stroke-width="1.6"/>
<path d="M 560.0 344.0 C 585.0 344.0 585.0 250.6 610.0 250.6" fill="none" stroke="#64748b" stroke-width="1.6"/>
<path d="M 560.0 344.0 C 585.0 344.0 585.0 306.8 610.0 306.8" fill="none" stroke="#64748b" stroke-width="1.6"/>
<path d="M 560.0 344.0 C 585.0 344.0 585.0 363.0 610.0 363.0" fill="none" stroke="#64748b" stroke-width="1.6"/>
<path d="M 560.0 344.0 C 585.0 344.0 585.0 428.4 610.0 428.4" fill="none" stroke="#64748b" stroke-width="1.6"/>
<path d="M 290.0 456.5 C 315.0 456.5 315.0 493.7 340.0 493.7" fill="none" stroke="#64748b" stroke-width="1.6"/>
<path d="M 560.0 493.7 C 585.0 493.7 585.0 493.7 610.0 493.7" fill="none" stroke="#64748b" stroke-width="1.6"/>
<path d="M 290.0 456.5 C 315.0 456.5 315.0 606.1 340.0 606.1" fill="none" stroke="#64748b" stroke-width="1.6"/>
<path d="M 560.0 606.1 C 585.0 606.1 585.0 549.9 610.0 549.9" fill="none" stroke="#64748b" stroke-width="1.6"/>
<path d="M 560.0 606.1 C 585.0 606.1 585.0 606.1 610.0 606.1" fill="none" stroke="#64748b" stroke-width="1.6"/>
<path d="M 560.0 606.1 C 585.0 606.1 585.0 662.4 610.0 662.4" fill="none" stroke="#64748b" stroke-width="1.6"/>
<path d="M 290.0 456.5 C 315.0 456.5 315.0 746.7 340.0 746.7" fill="none" stroke="#64748b" stroke-width="1.6"/>
<path d="M 560.0 746.7 C 585.0 746.7 585.0 718.6 610.0 718.6" fill="none" stroke="#64748b" stroke-width="1.6"/>
<path d="M 560.0 746.7 C 585.0 746.7 585.0 774.8 610.0 774.8" fill="none" stroke="#64748b" stroke-width="1.6"/>
<rect x="70.0" y="438.4" width="220.0" height="36.2" rx="12" fill="#ffffff" stroke="#cbd5e1" stroke-width="1.5"/>
<text x="180.0" y="452.5" font-family="'PingFang SC','Microsoft YaHei','Noto Sans SC','Helvetica Neue',Arial,sans-serif" font-size="13.5" fill="#1f2933" font-weight="bold" text-anchor="middle">CAN FD 帧</text>
<rect x="340.0" y="148.1" width="220.0" height="36.2" rx="12" fill="#eaf1fb" stroke="#0f4c81" stroke-width="1.5"/>
<text x="450.0" y="162.2" font-family="'PingFang SC','Microsoft YaHei','Noto Sans SC','Helvetica Neue',Arial,sans-serif" font-size="13.5" fill="#1f2933" font-weight="bold" text-anchor="middle">仲裁场</text>
<rect x="610.0" y="120.0" width="220.0" height="36.2" rx="12" fill="#ffffff" stroke="#cbd5e1" stroke-width="1.5"/>
<text x="720.0" y="134.1" font-family="'PingFang SC','Microsoft YaHei','Noto Sans SC','Helvetica Neue',Arial,sans-serif" font-size="13.5" fill="#1f2933" font-weight="bold" text-anchor="middle">11/29 位 ID</text>
<rect x="610.0" y="176.2" width="220.0" height="36.2" rx="12" fill="#ffffff" stroke="#cbd5e1" stroke-width="1.5"/>
<text x="720.0" y="190.3" font-family="'PingFang SC','Microsoft YaHei','Noto Sans SC','Helvetica Neue',Arial,sans-serif" font-size="13.5" fill="#1f2933" font-weight="bold" text-anchor="middle">RRS(恒显性)</text>
<rect x="340.0" y="325.9" width="220.0" height="36.2" rx="12" fill="#fff3dd" stroke="#d97706" stroke-width="1.5"/>
<text x="450.0" y="340.0" font-family="'PingFang SC','Microsoft YaHei','Noto Sans SC','Helvetica Neue',Arial,sans-serif" font-size="13.5" fill="#1f2933" font-weight="bold" text-anchor="middle">控制场</text>
<rect x="610.0" y="232.4" width="220.0" height="36.2" rx="12" fill="#ffffff" stroke="#cbd5e1" stroke-width="1.5"/>
<text x="720.0" y="246.6" font-family="'PingFang SC','Microsoft YaHei','Noto Sans SC','Helvetica Neue',Arial,sans-serif" font-size="13.5" fill="#1f2933" font-weight="bold" text-anchor="middle">EDL = 1 → FD 帧</text>
<rect x="610.0" y="288.7" width="220.0" height="36.2" rx="12" fill="#ffffff" stroke="#cbd5e1" stroke-width="1.5"/>
<text x="720.0" y="302.8" font-family="'PingFang SC','Microsoft YaHei','Noto Sans SC','Helvetica Neue',Arial,sans-serif" font-size="13.5" fill="#1f2933" font-weight="bold" text-anchor="middle">BRS = 1 → 数据相位提速</text>
<rect x="610.0" y="344.9" width="220.0" height="36.2" rx="12" fill="#ffffff" stroke="#cbd5e1" stroke-width="1.5"/>
<text x="720.0" y="359.0" font-family="'PingFang SC','Microsoft YaHei','Noto Sans SC','Helvetica Neue',Arial,sans-serif" font-size="13.5" fill="#1f2933" font-weight="bold" text-anchor="middle">ESI = 发送方错误状态</text>
<rect x="610.0" y="401.1" width="220.0" height="54.5" rx="12" fill="#ffffff" stroke="#cbd5e1" stroke-width="1.5"/>
<text x="720.0" y="424.4" font-family="'PingFang SC','Microsoft YaHei','Noto Sans SC','Helvetica Neue',Arial,sans-serif" font-size="13.5" fill="#1f2933" font-weight="bold" text-anchor="middle">DLC:9~15 →</text>
<text x="720.0" y="442.6" font-family="'PingFang SC','Microsoft YaHei','Noto Sans SC','Helvetica Neue',Arial,sans-serif" font-size="13.5" fill="#1f2933" font-weight="bold" text-anchor="middle">12/16/20/24/32/48/64</text>
<rect x="340.0" y="475.6" width="220.0" height="36.2" rx="12" fill="#eaf1fb" stroke="#0f4c81" stroke-width="1.5"/>
<text x="450.0" y="489.7" font-family="'PingFang SC','Microsoft YaHei','Noto Sans SC','Helvetica Neue',Arial,sans-serif" font-size="13.5" fill="#1f2933" font-weight="bold" text-anchor="middle">数据场</text>
<rect x="610.0" y="475.6" width="220.0" height="36.2" rx="12" fill="#ffffff" stroke="#cbd5e1" stroke-width="1.5"/>
<text x="720.0" y="489.7" font-family="'PingFang SC','Microsoft YaHei','Noto Sans SC','Helvetica Neue',Arial,sans-serif" font-size="13.5" fill="#1f2933" font-weight="bold" text-anchor="middle">0~64 字节</text>
<rect x="340.0" y="588.0" width="220.0" height="36.2" rx="12" fill="#e7f6ef" stroke="#16a34a" stroke-width="1.5"/>
<text x="450.0" y="602.1" font-family="'PingFang SC','Microsoft YaHei','Noto Sans SC','Helvetica Neue',Arial,sans-serif" font-size="13.5" fill="#1f2933" font-weight="bold" text-anchor="middle">CRC 场</text>
<rect x="610.0" y="531.8" width="220.0" height="36.2" rx="12" fill="#ffffff" stroke="#cbd5e1" stroke-width="1.5"/>
<text x="720.0" y="545.9" font-family="'PingFang SC','Microsoft YaHei','Noto Sans SC','Helvetica Neue',Arial,sans-serif" font-size="13.5" fill="#1f2933" font-weight="bold" text-anchor="middle">≤16 B → CRC-17</text>
<rect x="610.0" y="588.0" width="220.0" height="36.2" rx="12" fill="#ffffff" stroke="#cbd5e1" stroke-width="1.5"/>
<text x="720.0" y="602.1" font-family="'PingFang SC','Microsoft YaHei','Noto Sans SC','Helvetica Neue',Arial,sans-serif" font-size="13.5" fill="#1f2933" font-weight="bold" text-anchor="middle">&gt;16 B → CRC-21</text>
<rect x="610.0" y="644.2" width="220.0" height="36.2" rx="12" fill="#ffffff" stroke="#cbd5e1" stroke-width="1.5"/>
<text x="720.0" y="658.4" font-family="'PingFang SC','Microsoft YaHei','Noto Sans SC','Helvetica Neue',Arial,sans-serif" font-size="13.5" fill="#1f2933" font-weight="bold" text-anchor="middle">含固定填充位</text>
<rect x="340.0" y="728.6" width="220.0" height="36.2" rx="12" fill="#f1f5f9" stroke="#64748b" stroke-width="1.5"/>
<text x="450.0" y="742.7" font-family="'PingFang SC','Microsoft YaHei','Noto Sans SC','Helvetica Neue',Arial,sans-serif" font-size="13.5" fill="#1f2933" font-weight="bold" text-anchor="middle">ACK + EOF</text>
<rect x="610.0" y="700.5" width="220.0" height="36.2" rx="12" fill="#ffffff" stroke="#cbd5e1" stroke-width="1.5"/>
<text x="720.0" y="714.6" font-family="'PingFang SC','Microsoft YaHei','Noto Sans SC','Helvetica Neue',Arial,sans-serif" font-size="13.5" fill="#1f2933" font-weight="bold" text-anchor="middle">ACK slot + delimiter</text>
<rect x="610.0" y="756.7" width="220.0" height="36.2" rx="12" fill="#ffffff" stroke="#cbd5e1" stroke-width="1.5"/>
<text x="720.0" y="770.8" font-family="'PingFang SC','Microsoft YaHei','Noto Sans SC','Helvetica Neue',Arial,sans-serif" font-size="13.5" fill="#1f2933" font-weight="bold" text-anchor="middle">EOF:7 位隐性</text></svg>
