<svg xmlns="http://www.w3.org/2000/svg" viewBox="0 0 1200 660" width="1200" height="660" font-family="'PingFang SC','Microsoft YaHei','Noto Sans SC','Helvetica Neue',Arial,sans-serif">
<rect x="0" y="0" width="1200" height="660" fill="#ffffff"/>
<rect x="0" y="0" width="1200" height="66" fill="#0a3a63"/>
<text x="36" y="32" font-size="22" font-weight="bold" fill="#ffffff">图 5 安全操作区与采样点</text>
<text x="36" y="53" font-size="13" fill="#c7d6ea">信号可在安全操作区内自由振荡,但必须在最早隐性采样点前回到 0.5 V 以下</text>
<defs>
<marker id="arr" markerWidth="10" markerHeight="10" refX="8" refY="3" orient="auto" markerUnits="strokeWidth">
  <path d="M0,0 L8,3 L0,6 Z" fill="#0f4c81"/></marker>
<marker id="arrA" markerWidth="10" markerHeight="10" refX="8" refY="3" orient="auto" markerUnits="strokeWidth">
  <path d="M0,0 L8,3 L0,6 Z" fill="#d97706"/></marker>
<marker id="arrG" markerWidth="10" markerHeight="10" refX="8" refY="3" orient="auto" markerUnits="strokeWidth">
  <path d="M0,0 L8,3 L0,6 Z" fill="#16a34a"/></marker>
</defs>
<line x1="150.0" y1="260.0" x2="1060.0" y2="260.0" stroke="#b45309" stroke-width="1.2" stroke-dasharray="5 4"/><text x="1052.0" y="252.0" font-family="'PingFang SC','Microsoft YaHei','Noto Sans SC','Helvetica Neue',Arial,sans-serif" font-size="12.5" fill="#b45309" font-weight="normal" text-anchor="end">0.9 V(显性阈值)</text><line x1="150.0" y1="330.0" x2="1060.0" y2="330.0" stroke="#64748b" stroke-width="1.2" stroke-dasharray="5 4"/><text x="1052.0" y="322.0" font-family="'PingFang SC','Microsoft YaHei','Noto Sans SC','Helvetica Neue',Arial,sans-serif" font-size="12.5" fill="#64748b" font-weight="normal" text-anchor="end">0.5 V(隐性阈值)</text><rect x="560.0" y="340.0" width="500.0" height="110.0" rx="12" fill="rgba(22,163,74,0.10)" stroke="#16a34a" stroke-width="1.3" stroke-dasharray="5 4"/><text x="810.0" y="372.0" font-family="'PingFang SC','Microsoft YaHei','Noto Sans SC','Helvetica Neue',Arial,sans-serif" font-size="15" fill="#16a34a" font-weight="bold" text-anchor="middle">安全操作区</text><text x="810.0" y="398.0" font-family="'PingFang SC','Microsoft YaHei','Noto Sans SC','Helvetica Neue',Arial,sans-serif" font-size="12.5" fill="#64748b" font-weight="normal" text-anchor="middle">信号可自由振荡,只要在最早采样点前</text><text x="810.0" y="420.0" font-family="'PingFang SC','Microsoft YaHei','Noto Sans SC','Helvetica Neue',Arial,sans-serif" font-size="12.5" fill="#64748b" font-weight="normal" text-anchor="middle">回到 0.5 V 以下(Allowable Ringing Time)</text><line x1="150.0" y1="220.0" x2="400.0" y2="220.0" stroke="#0f4c81" stroke-width="2.2"/><path d="M 400.0 220.0 L 404.7 224.0 L 409.4 229.2 L 414.1 235.5 L 418.9 242.9 L 423.6 251.1 L 428.3 260.1 L 433.0 269.8 L 437.7 280.0 L 442.4 290.6 L 447.1 301.4 L 451.9 312.5 L 456.6 323.5 L 461.3 334.5 L 466.0 345.3 L 470.7 355.8 L 475.4 365.9 L 480.1 375.6 L 484.9 384.7 L 489.6 393.2 L 494.3 401.1 L 499.0 408.2 L 503.7 414.6 L 508.4 420.2 L 513.1 425.0 L 517.9 429.0 L 522.6 432.2 L 527.3 434.5 L 532.0 436.1 L 536.7 436.9 L 541.4 436.9 L 546.1 436.2 L 550.9 434.8 L 555.6 432.7 L 560.3 430.1 L 565.0 427.0 L 569.7 423.3 L 574.4 419.3 L 579.1 414.9 L 583.9 410.1 L 588.6 405.2 L 593.3 400.0 L 598.0 394.7 L 602.7 389.4 L 607.4 384.1 L 612.1 378.8 L 616.9 373.6 L 621.6 368.6 L 626.3 363.7 L 631.0 359.1 L 635.7 354.7 L 640.4 350.6 L 645.1 346.9 L 649.9 343.5 L 654.6 340.5 L 659.3 337.9 L 664.0 335.6 L 668.7 333.8 L 673.4 332.3 L 678.1 331.2 L 682.9 330.6 L 687.6 330.3 L 692.3 330.3 L 697.0 330.7 L 701.7 331.4 L 706.4 332.5 L 711.1 333.8 L 715.9 335.4 L 720.6 337.2 L 725.3 339.2 L 730.0 341.3 L 734.7 343.6 L 739.4 346.0 L 744.1 348.5 L 748.9 351.1 L 753.6 353.7 L 758.3 356.2 L 763.0 358.8 L 767.7 361.3 L 772.4 363.7 L 777.1 366.0 L 781.9 368.3 L 786.6 370.3 L 791.3 372.3 L 796.0 374.1 L 800.7 375.7 L 805.4 377.1 L 810.1 378.3 L 814.9 379.4 L 819.6 380.2 L 824.3 380.9 L 829.0 381.4 L 833.7 381.7 L 838.4 381.8 L 843.1 381.7 L 847.9 381.5 L 852.6 381.1 L 857.3 380.6 L 862.0 380.0 L 866.7 379.2 L 871.4 378.3 L 876.1 377.3 L 880.9 376.2 L 885.6 375.1 L 890.3 373.9 L 895.0 372.7 L 899.7 371.5 L 904.4 370.2 L 909.1 369.0 L 913.9 367.8 L 918.6 366.6 L 923.3 365.4 L 928.0 364.3 L 932.7 363.2 L 937.4 362.2 L 942.1 361.3 L 946.9 360.5 L 951.6 359.7 L 956.3 359.0 L 961.0 358.5 L 965.7 358.0 L 970.4 357.6 L 975.1 357.3 L 979.9 357.0 L 984.6 356.9 L 989.3 356.9 L 994.0 356.9 L 998.7 357.0 L 1003.4 357.2 L 1008.1 357.5 L 1012.9 357.8 L 1017.6 358.2 L 1022.3 358.7 L 1027.0 359.1 L 1031.7 359.7 L 1036.4 360.2 L 1041.1 360.8 L 1045.9 361.4 L 1050.6 362.0 L 1055.3 362.6 L 1060.0 363.2" fill="none" stroke="#0f4c81" stroke-width="2.2"/><line x1="680.0" y1="120.0" x2="680.0" y2="580.0" stroke="#0f4c81" stroke-width="1.4" stroke-dasharray="4 4"/><text x="680.0" y="108.0" font-family="'PingFang SC','Microsoft YaHei','Noto Sans SC','Helvetica Neue',Arial,sans-serif" font-size="13" fill="#0f4c81" font-weight="bold" text-anchor="middle">最早采样点</text><text x="680.0" y="596.0" font-family="'PingFang SC','Microsoft YaHei','Noto Sans SC','Helvetica Neue',Arial,sans-serif" font-size="15" fill="#0f4c81" font-weight="normal" text-anchor="middle">▼</text><line x1="930.0" y1="120.0" x2="930.0" y2="580.0" stroke="#0f4c81" stroke-width="1.4" stroke-dasharray="4 4"/><text x="930.0" y="108.0" font-family="'PingFang SC','Microsoft YaHei','Noto Sans SC','Helvetica Neue',Arial,sans-serif" font-size="13" fill="#0f4c81" font-weight="bold" text-anchor="middle">最晚采样点</text><text x="930.0" y="596.0" font-family="'PingFang SC','Microsoft YaHei','Noto Sans SC','Helvetica Neue',Arial,sans-serif" font-size="15" fill="#0f4c81" font-weight="normal" text-anchor="middle">▼</text><line x1="400.0" y1="470.0" x2="680.0" y2="470.0" stroke="#16a34a" stroke-width="1.8" marker-end="url(#arrG)"/><text x="540.0" y="500.0" font-family="'PingFang SC','Microsoft YaHei','Noto Sans SC','Helvetica Neue',Arial,sans-serif" font-size="13.5" fill="#16a34a" font-weight="bold" text-anchor="middle">允许振铃时间</text><text x="600.0" y="620.0" font-family="'PingFang SC','Microsoft YaHei','Noto Sans SC','Helvetica Neue',Arial,sans-serif" font-size="13.5" fill="#64748b" font-weight="normal" text-anchor="middle">SIC 价值:① 收紧对称性 → 扩大安全区;② 快速压振铃 → 尽早进入安全区</text></svg>
