<svg xmlns="http://www.w3.org/2000/svg" viewBox="0 0 1000 1131.0" width="1000" height="1131.0" font-family="'PingFang SC','Microsoft YaHei','Noto Sans SC','Helvetica Neue',Arial,sans-serif">
<rect x="0" y="0" width="1000" height="1131.0" fill="#ffffff"/>
<rect x="0" y="0" width="1000" height="62" fill="#0a3a63"/>
<text x="36" y="30" font-size="22" font-weight="bold" fill="#ffffff">图 21 收发器芯片设计要点思维导图</text>
<text x="36" y="51" font-size="13" fill="#c7d6ea">输出级 → SIC 控制 → 振铃抑制 → 接收器 → 电源保护 → 检查清单</text>
<defs>
<marker id="arr" markerWidth="10" markerHeight="10" refX="8" refY="3" orient="auto" markerUnits="strokeWidth">
  <path d="M0,0 L8,3 L0,6 Z" fill="#0f4c81"/>
</marker>
<marker id="arrA" markerWidth="10" markerHeight="10" refX="8" refY="3" orient="auto" markerUnits="strokeWidth">
  <path d="M0,0 L8,3 L0,6 Z" fill="#d97706"/>
</marker>
<marker id="arrG" markerWidth="10" markerHeight="10" refX="8" refY="3" orient="auto" markerUnits="strokeWidth">
  <path d="M0,0 L8,3 L0,6 Z" fill="#16a34a"/>
</marker>
<marker id="dot" markerWidth="8" markerHeight="8" refX="4" refY="4" orient="auto">
  <circle cx="4" cy="4" r="3" fill="#64748b"/>
</marker>
</defs>
<path d="M 256.0 566.5 C 262.0 566.5 262.0 169.0 268.0 169.0" fill="none" stroke="#64748b" stroke-width="1.5"/>
<path d="M 480.0 169.0 C 486.0 169.0 486.0 116.0 492.0 116.0" fill="none" stroke="#64748b" stroke-width="1.5"/>
<rect x="492.0" y="96.0" width="212.0" height="40.0" rx="10" fill="#ffffff" stroke="#cbd5e1" stroke-width="1.4"/>
<text x="598.0" y="120.0" font-family="'PingFang SC','Microsoft YaHei','Noto Sans SC','Helvetica Neue',Arial,sans-serif" font-size="14" fill="#1f2933" font-weight="bold" text-anchor="middle">三态阻抗:50 Ω / 100 Ω / 60 kΩ</text>
<path d="M 480.0 169.0 C 486.0 169.0 486.0 169.0 492.0 169.0" fill="none" stroke="#64748b" stroke-width="1.5"/>
<rect x="492.0" y="149.0" width="212.0" height="40.0" rx="10" fill="#ffffff" stroke="#cbd5e1" stroke-width="1.4"/>
<text x="598.0" y="173.0" font-family="'PingFang SC','Microsoft YaHei','Noto Sans SC','Helvetica Neue',Arial,sans-serif" font-size="14" fill="#1f2933" font-weight="bold" text-anchor="middle">边沿斜率与对称性</text>
<path d="M 480.0 169.0 C 486.0 169.0 486.0 222.0 492.0 222.0" fill="none" stroke="#64748b" stroke-width="1.5"/>
<rect x="492.0" y="202.0" width="212.0" height="40.0" rx="10" fill="#ffffff" stroke="#cbd5e1" stroke-width="1.4"/>
<text x="598.0" y="226.0" font-family="'PingFang SC','Microsoft YaHei','Noto Sans SC','Helvetica Neue',Arial,sans-serif" font-size="14" fill="#1f2933" font-weight="bold" text-anchor="middle">大电流灌/拉能力</text>
<rect x="268.0" y="149.0" width="212.0" height="40.0" rx="10" fill="#eaf1fb" stroke="#0f4c81" stroke-width="1.4"/>
<text x="374.0" y="173.0" font-family="'PingFang SC','Microsoft YaHei','Noto Sans SC','Helvetica Neue',Arial,sans-serif" font-size="14" fill="#1f2933" font-weight="bold" text-anchor="middle">输出级</text>
<path d="M 256.0 566.5 C 262.0 566.5 262.0 328.0 268.0 328.0" fill="none" stroke="#64748b" stroke-width="1.5"/>
<path d="M 480.0 328.0 C 486.0 328.0 486.0 275.0 492.0 275.0" fill="none" stroke="#64748b" stroke-width="1.5"/>
<rect x="492.0" y="255.0" width="212.0" height="40.0" rx="10" fill="#ffffff" stroke="#cbd5e1" stroke-width="1.4"/>
<text x="598.0" y="279.0" font-family="'PingFang SC','Microsoft YaHei','Noto Sans SC','Helvetica Neue',Arial,sans-serif" font-size="14" fill="#1f2933" font-weight="bold" text-anchor="middle">显性→隐性边沿检测</text>
<path d="M 480.0 328.0 C 486.0 328.0 486.0 328.0 492.0 328.0" fill="none" stroke="#64748b" stroke-width="1.5"/>
<rect x="492.0" y="308.0" width="212.0" height="40.0" rx="10" fill="#ffffff" stroke="#cbd5e1" stroke-width="1.4"/>
<text x="598.0" y="332.0" font-family="'PingFang SC','Microsoft YaHei','Noto Sans SC','Helvetica Neue',Arial,sans-serif" font-size="14" fill="#1f2933" font-weight="bold" text-anchor="middle">时序窗口 ≤120 / ≥355 / ≤530 ns</text>
<path d="M 480.0 328.0 C 486.0 328.0 486.0 381.0 492.0 381.0" fill="none" stroke="#64748b" stroke-width="1.5"/>
<rect x="492.0" y="361.0" width="212.0" height="40.0" rx="10" fill="#ffffff" stroke="#cbd5e1" stroke-width="1.4"/>
<text x="598.0" y="385.0" font-family="'PingFang SC','Microsoft YaHei','Noto Sans SC','Helvetica Neue',Arial,sans-serif" font-size="14" fill="#1f2933" font-weight="bold" text-anchor="middle">阻抗切换精度</text>
<rect x="268.0" y="308.0" width="212.0" height="40.0" rx="10" fill="#fff3dd" stroke="#d97706" stroke-width="1.4"/>
<text x="374.0" y="332.0" font-family="'PingFang SC','Microsoft YaHei','Noto Sans SC','Helvetica Neue',Arial,sans-serif" font-size="14" fill="#1f2933" font-weight="bold" text-anchor="middle">SIC 控制逻辑</text>
<path d="M 256.0 566.5 C 262.0 566.5 262.0 487.0 268.0 487.0" fill="none" stroke="#64748b" stroke-width="1.5"/>
<path d="M 480.0 487.0 C 486.0 487.0 486.0 434.0 492.0 434.0" fill="none" stroke="#64748b" stroke-width="1.5"/>
<rect x="492.0" y="414.0" width="212.0" height="40.0" rx="10" fill="#ffffff" stroke="#cbd5e1" stroke-width="1.4"/>
<text x="598.0" y="438.0" font-family="'PingFang SC','Microsoft YaHei','Noto Sans SC','Helvetica Neue',Arial,sans-serif" font-size="14" fill="#1f2933" font-weight="bold" text-anchor="middle">Recessive Nulling(TI)</text>
<path d="M 480.0 487.0 C 486.0 487.0 486.0 487.0 492.0 487.0" fill="none" stroke="#64748b" stroke-width="1.5"/>
<rect x="492.0" y="467.0" width="212.0" height="40.0" rx="10" fill="#ffffff" stroke="#cbd5e1" stroke-width="1.4"/>
<text x="598.0" y="491.0" font-family="'PingFang SC','Microsoft YaHei','Noto Sans SC','Helvetica Neue',Arial,sans-serif" font-size="14" fill="#1f2933" font-weight="bold" text-anchor="middle">瞬态检测阻尼(Bosch/NXP)</text>
<path d="M 480.0 487.0 C 486.0 487.0 486.0 540.0 492.0 540.0" fill="none" stroke="#64748b" stroke-width="1.5"/>
<rect x="492.0" y="520.0" width="212.0" height="40.0" rx="10" fill="#ffffff" stroke="#cbd5e1" stroke-width="1.4"/>
<text x="598.0" y="544.0" font-family="'PingFang SC','Microsoft YaHei','Noto Sans SC','Helvetica Neue',Arial,sans-serif" font-size="14" fill="#1f2933" font-weight="bold" text-anchor="middle">阻抗匹配(Microchip)</text>
<rect x="268.0" y="467.0" width="212.0" height="40.0" rx="10" fill="#e7f6ef" stroke="#16a34a" stroke-width="1.4"/>
<text x="374.0" y="491.0" font-family="'PingFang SC','Microsoft YaHei','Noto Sans SC','Helvetica Neue',Arial,sans-serif" font-size="14" fill="#1f2933" font-weight="bold" text-anchor="middle">振铃抑制电路</text>
<path d="M 256.0 566.5 C 262.0 566.5 262.0 646.0 268.0 646.0" fill="none" stroke="#64748b" stroke-width="1.5"/>
<path d="M 480.0 646.0 C 486.0 646.0 486.0 593.0 492.0 593.0" fill="none" stroke="#64748b" stroke-width="1.5"/>
<rect x="492.0" y="573.0" width="212.0" height="40.0" rx="10" fill="#ffffff" stroke="#cbd5e1" stroke-width="1.4"/>
<text x="598.0" y="597.0" font-family="'PingFang SC','Microsoft YaHei','Noto Sans SC','Helvetica Neue',Arial,sans-serif" font-size="14" fill="#1f2933" font-weight="bold" text-anchor="middle">比较器迟滞</text>
<path d="M 480.0 646.0 C 486.0 646.0 486.0 646.0 492.0 646.0" fill="none" stroke="#64748b" stroke-width="1.5"/>
<rect x="492.0" y="626.0" width="212.0" height="40.0" rx="10" fill="#ffffff" stroke="#cbd5e1" stroke-width="1.4"/>
<text x="598.0" y="650.0" font-family="'PingFang SC','Microsoft YaHei','Noto Sans SC','Helvetica Neue',Arial,sans-serif" font-size="14" fill="#1f2933" font-weight="bold" text-anchor="middle">共模范围与输入阻抗</text>
<path d="M 480.0 646.0 C 486.0 646.0 486.0 699.0 492.0 699.0" fill="none" stroke="#64748b" stroke-width="1.5"/>
<rect x="492.0" y="679.0" width="212.0" height="40.0" rx="10" fill="#ffffff" stroke="#cbd5e1" stroke-width="1.4"/>
<text x="598.0" y="703.0" font-family="'PingFang SC','Microsoft YaHei','Noto Sans SC','Helvetica Neue',Arial,sans-serif" font-size="14" fill="#1f2933" font-weight="bold" text-anchor="middle">tREC 对称性</text>
<rect x="268.0" y="626.0" width="212.0" height="40.0" rx="10" fill="#f1f5f9" stroke="#64748b" stroke-width="1.4"/>
<text x="374.0" y="650.0" font-family="'PingFang SC','Microsoft YaHei','Noto Sans SC','Helvetica Neue',Arial,sans-serif" font-size="14" fill="#1f2933" font-weight="bold" text-anchor="middle">接收器</text>
<path d="M 256.0 566.5 C 262.0 566.5 262.0 805.0 268.0 805.0" fill="none" stroke="#64748b" stroke-width="1.5"/>
<path d="M 480.0 805.0 C 486.0 805.0 486.0 752.0 492.0 752.0" fill="none" stroke="#64748b" stroke-width="1.5"/>
<rect x="492.0" y="732.0" width="212.0" height="40.0" rx="10" fill="#ffffff" stroke="#cbd5e1" stroke-width="1.4"/>
<text x="598.0" y="756.0" font-family="'PingFang SC','Microsoft YaHei','Noto Sans SC','Helvetica Neue',Arial,sans-serif" font-size="14" fill="#1f2933" font-weight="bold" text-anchor="middle">VCC / VIO / VBAT 管理</text>
<path d="M 480.0 805.0 C 486.0 805.0 486.0 805.0 492.0 805.0" fill="none" stroke="#64748b" stroke-width="1.5"/>
<rect x="492.0" y="785.0" width="212.0" height="40.0" rx="10" fill="#ffffff" stroke="#cbd5e1" stroke-width="1.4"/>
<text x="598.0" y="809.0" font-family="'PingFang SC','Microsoft YaHei','Noto Sans SC','Helvetica Neue',Arial,sans-serif" font-size="14" fill="#1f2933" font-weight="bold" text-anchor="middle">ESD · 总线容错 · TXD 超时</text>
<path d="M 480.0 805.0 C 486.0 805.0 486.0 858.0 492.0 858.0" fill="none" stroke="#64748b" stroke-width="1.5"/>
<rect x="492.0" y="838.0" width="212.0" height="40.0" rx="10" fill="#ffffff" stroke="#cbd5e1" stroke-width="1.4"/>
<text x="598.0" y="862.0" font-family="'PingFang SC','Microsoft YaHei','Noto Sans SC','Helvetica Neue',Arial,sans-serif" font-size="14" fill="#1f2933" font-weight="bold" text-anchor="middle">Standby / Sleep / Listen-Only</text>
<rect x="268.0" y="785.0" width="212.0" height="40.0" rx="10" fill="#fde8e8" stroke="#b45309" stroke-width="1.4"/>
<text x="374.0" y="809.0" font-family="'PingFang SC','Microsoft YaHei','Noto Sans SC','Helvetica Neue',Arial,sans-serif" font-size="14" fill="#1f2933" font-weight="bold" text-anchor="middle">电源 / 保护 / 模式</text>
<path d="M 256.0 566.5 C 262.0 566.5 262.0 964.0 268.0 964.0" fill="none" stroke="#64748b" stroke-width="1.5"/>
<path d="M 480.0 964.0 C 486.0 964.0 486.0 911.0 492.0 911.0" fill="none" stroke="#64748b" stroke-width="1.5"/>
<rect x="492.0" y="891.0" width="212.0" height="40.0" rx="10" fill="#ffffff" stroke="#cbd5e1" stroke-width="1.4"/>
<text x="598.0" y="915.0" font-family="'PingFang SC','Microsoft YaHei','Noto Sans SC','Helvetica Neue',Arial,sans-serif" font-size="14" fill="#1f2933" font-weight="bold" text-anchor="middle">竞品参数逐项对标</text>
<path d="M 480.0 964.0 C 486.0 964.0 486.0 964.0 492.0 964.0" fill="none" stroke="#64748b" stroke-width="1.5"/>
<rect x="492.0" y="944.0" width="212.0" height="40.0" rx="10" fill="#ffffff" stroke="#cbd5e1" stroke-width="1.4"/>
<text x="598.0" y="968.0" font-family="'PingFang SC','Microsoft YaHei','Noto Sans SC','Helvetica Neue',Arial,sans-serif" font-size="14" fill="#1f2933" font-weight="bold" text-anchor="middle">专利风险排查</text>
<path d="M 480.0 964.0 C 486.0 964.0 486.0 1017.0 492.0 1017.0" fill="none" stroke="#64748b" stroke-width="1.5"/>
<rect x="492.0" y="997.0" width="212.0" height="40.0" rx="10" fill="#ffffff" stroke="#cbd5e1" stroke-width="1.4"/>
<text x="598.0" y="1021.0" font-family="'PingFang SC','Microsoft YaHei','Noto Sans SC','Helvetica Neue',Arial,sans-serif" font-size="14" fill="#1f2933" font-weight="bold" text-anchor="middle">流片前 Review 项</text>
<rect x="268.0" y="944.0" width="212.0" height="40.0" rx="10" fill="#eaf1fb" stroke="#0f4c81" stroke-width="1.4"/>
<text x="374.0" y="968.0" font-family="'PingFang SC','Microsoft YaHei','Noto Sans SC','Helvetica Neue',Arial,sans-serif" font-size="14" fill="#1f2933" font-weight="bold" text-anchor="middle">设计检查清单</text>
<rect x="44.0" y="546.5" width="212.0" height="40.0" rx="10" fill="#ffffff" stroke="#cbd5e1" stroke-width="1.4"/>
<text x="150.0" y="570.5" font-family="'PingFang SC','Microsoft YaHei','Noto Sans SC','Helvetica Neue',Arial,sans-serif" font-size="14" fill="#1f2933" font-weight="bold" text-anchor="middle">收发器设计要点</text></svg>
